<svg width="30" height="22" viewBox="0 0 30 22" fill="none" xmlns="http://www.w3.org/2000/svg">
<path d="M7.04817 7.92455C9.04272 7.37481 11.7851 7.66418 14.1286 9.20319L14.3184 9.32762L14.1337 9.45747L14.1328 9.45807L14.1325 9.45837C14.1311 9.45945 14.1283 9.46155 14.1244 9.4647C14.1159 9.47153 14.1014 9.48349 14.0813 9.50176C14.0408 9.53843 13.9765 9.60069 13.8872 9.69849C13.7085 9.89436 13.4299 10.2326 13.04 10.7943C12.6504 11.3557 12.411 11.7632 12.2697 12.0283C12.1991 12.1607 12.1529 12.2577 12.1248 12.3205C12.1108 12.3519 12.1011 12.375 12.0952 12.3895C12.0924 12.3966 12.0904 12.4018 12.0892 12.4049C12.0887 12.4062 12.088 12.4082 12.088 12.4082L12.0877 12.4085L12.0295 12.5712L11.8744 12.4947C10.091 11.6143 8.89869 11.584 8.11621 11.7996C7.32976 12.0165 6.61794 12.5754 5.98314 13.5419C4.65448 15.5651 4.07388 18.7699 4.0221 21.2222L4.01879 21.3764L3.86453 21.3734L0 21.2918L0.00331409 21.1375C0.061539 18.3791 0.688175 14.2823 2.62325 11.3357C3.62009 9.81779 5.05428 8.47417 7.04817 7.92455Z" fill="#2196F3"/>
<circle cx="9.3623" cy="3.37548" r="3.37548" fill="#2196F3"/>
<circle cx="20.4394" cy="3.37548" r="3.37548" fill="#2196F3"/>
<path d="M18.3361 7.92418C20.3315 7.37418 22.7777 7.63579 25.1203 9.1742L25.1996 9.22632L25.189 9.32032C24.9119 11.7958 25.3206 13.0115 25.6596 14.2113C25.7858 14.6577 26.2631 15.3608 26.9594 15.9837C27.6524 16.6038 28.5357 17.12 29.4513 17.2238L29.6034 17.2413L29.1699 21.3896L29.0153 21.3722C25.3356 20.9553 23.1621 18.6119 22.0937 15.997C21.5417 14.6462 21.3034 13.0975 21.1705 11.7818C20.428 11.6343 19.8506 11.6763 19.4044 11.7993C18.6179 12.0161 17.9059 12.5752 17.2711 13.5419C15.9424 15.5651 15.3618 18.7698 15.31 21.2221L15.3067 21.3731H11.2991L11.3024 21.2155C11.3606 18.4581 11.9757 14.2824 13.9112 11.3353C14.908 9.8174 16.3422 8.47383 18.3361 7.92418Z" fill="#2196F3"/>
</svg>
