<svg width="97" height="22" viewBox="0 0 97 22" fill="none" xmlns="http://www.w3.org/2000/svg">
<path d="M7.04817 7.92455C9.04272 7.37481 11.7851 7.66418 14.1286 9.20319L14.3184 9.32762L14.1337 9.45747L14.1328 9.45807L14.1325 9.45837C14.1311 9.45945 14.1283 9.46155 14.1244 9.4647C14.1159 9.47153 14.1014 9.48349 14.0813 9.50176C14.0408 9.53843 13.9765 9.60069 13.8872 9.69849C13.7085 9.89436 13.4299 10.2326 13.04 10.7943C12.6504 11.3557 12.411 11.7632 12.2697 12.0283C12.1991 12.1607 12.1529 12.2577 12.1248 12.3205C12.1108 12.3519 12.1011 12.375 12.0952 12.3895C12.0924 12.3966 12.0904 12.4018 12.0892 12.4049C12.0887 12.4062 12.088 12.4082 12.088 12.4082L12.0877 12.4085L12.0295 12.5712L11.8744 12.4947C10.091 11.6143 8.89869 11.584 8.11621 11.7996C7.32976 12.0165 6.61794 12.5754 5.98314 13.5419C4.65448 15.5651 4.07388 18.7699 4.0221 21.2222L4.01879 21.3764L3.86453 21.3734L0 21.2918L0.00331409 21.1375C0.061539 18.3791 0.688175 14.2823 2.62325 11.3357C3.62009 9.81779 5.05428 8.47417 7.04817 7.92455Z" fill="#2196F3"/>
<circle cx="9.3623" cy="3.37548" r="3.37548" fill="#2196F3"/>
<circle cx="20.4394" cy="3.37548" r="3.37548" fill="#2196F3"/>
<path d="M18.3361 7.92418C20.3315 7.37418 22.7777 7.63579 25.1203 9.1742L25.1996 9.22632L25.189 9.32032C24.9119 11.7958 25.3206 13.0115 25.6596 14.2113C25.7858 14.6577 26.2631 15.3608 26.9594 15.9837C27.6524 16.6038 28.5357 17.12 29.4513 17.2238L29.6034 17.2413L29.1699 21.3896L29.0153 21.3722C25.3356 20.9553 23.1621 18.6119 22.0937 15.997C21.5417 14.6462 21.3034 13.0975 21.1705 11.7818C20.428 11.6343 19.8506 11.6763 19.4044 11.7993C18.6179 12.0161 17.9059 12.5752 17.2711 13.5419C15.9424 15.5651 15.3618 18.7698 15.31 21.2221L15.3067 21.3731H11.2991L11.3024 21.2155C11.3606 18.4581 11.9757 14.2824 13.9112 11.3353C14.908 9.8174 16.3422 8.47383 18.3361 7.92418Z" fill="#2196F3"/>
<path d="M96.6464 0.915649V11.5931H91.821V0.915649H96.6464ZM78.6282 1.17232H90.0756V11.3364H78.6282V1.17232ZM83.4536 7.7174H85.2503V4.79136H83.4536V7.7174ZM96.6464 16.5212C96.6464 17.6676 96.2614 18.6173 95.4914 19.3702C94.7385 20.106 93.7802 20.4739 92.6167 20.4739H83.2226C82.059 20.4739 81.0922 20.106 80.3222 19.3702C79.5693 18.6173 79.1928 17.6676 79.1928 16.5212C79.1928 15.3747 79.5693 14.4336 80.3222 13.6978C81.0922 12.9449 82.059 12.5685 83.2226 12.5685H92.6167C93.7802 12.5685 94.7385 12.9449 95.4914 13.6978C96.2614 14.4336 96.6464 15.3747 96.6464 16.5212ZM91.3333 16.0335H84.5059C84.369 16.0335 84.2492 16.0848 84.1466 16.1875C84.061 16.2731 84.0182 16.3843 84.0182 16.5212C84.0182 16.6581 84.061 16.7778 84.1466 16.8805C84.2492 16.9661 84.369 17.0088 84.5059 17.0088H91.3333C91.4702 17.0088 91.5814 16.9661 91.667 16.8805C91.7697 16.7778 91.821 16.6581 91.821 16.5212C91.821 16.3843 91.7697 16.2731 91.667 16.1875C91.5814 16.0848 91.4702 16.0335 91.3333 16.0335Z" fill="black"/>
<path d="M70.7158 0.967346H75.5412V20.4743H70.7158V0.967346ZM63.2724 1.17268C65.1546 1.17268 66.5834 1.66891 67.5587 2.66137C68.5341 3.65382 69.0218 5.10829 69.0218 7.02475V13.8522C69.0218 15.7686 68.5341 17.2231 67.5587 18.2156C66.5834 19.208 65.1546 19.7042 63.2724 19.7042C61.3901 19.7042 59.9613 19.208 58.986 18.2156C58.0106 17.2231 57.5229 15.7686 57.5229 13.8522V7.02475C57.5229 5.10829 58.0106 3.65382 58.986 2.66137C59.9613 1.66891 61.3901 1.17268 63.2724 1.17268ZM63.2724 5.02273C62.6392 5.02273 62.3227 5.34784 62.3227 5.99808V14.8788C62.3227 15.5291 62.6392 15.8542 63.2724 15.8542C63.9055 15.8542 64.222 15.5291 64.222 14.8788V5.99808C64.222 5.34784 63.9055 5.02273 63.2724 5.02273Z" fill="black"/>
<path d="M53.9337 1.17255V12.4917H36.4801V1.17255H53.9337ZM49.1083 8.64164V5.04826H41.3055V8.64164H49.1083ZM47.6453 15.8541H54.447V19.7041H35.9668V15.8541H42.7685V13.2874H47.6453V15.8541Z" fill="black"/>
</svg>
